<svg width="147" height="30" viewBox="0 0 147 30" fill="none" xmlns="http://www.w3.org/2000/svg">
<path d="M40.6172 23V4.13042H44.1754L52.1411 17.0561V4.13042H55.4298V23H51.885L43.9059 10.0743V23H40.6172Z" fill="#15171A"/>
<path d="M64.261 23.3504C63.021 23.3504 61.8888 23.0314 60.8645 22.3935C59.8491 21.7555 59.0359 20.8974 58.4249 19.8191C57.8229 18.7409 57.5219 17.5503 57.5219 16.2474C57.5219 15.268 57.6971 14.3514 58.0475 13.4978C58.398 12.6352 58.8787 11.8804 59.4897 11.2335C60.1097 10.5775 60.8285 10.0653 61.6462 9.69694C62.4639 9.32854 63.3355 9.14433 64.261 9.14433C65.3123 9.14433 66.2738 9.36897 67.1454 9.81825C68.0259 10.2585 68.7717 10.8651 69.3827 11.6378C69.9938 12.4106 70.4385 13.2911 70.7171 14.2796C70.9956 15.268 71.0585 16.3013 70.9058 17.3796H61.0532C61.179 17.8827 61.3856 18.3365 61.6732 18.7409C61.9607 19.1362 62.3246 19.4552 62.7649 19.6978C63.2052 19.9314 63.7039 20.0527 64.261 20.0617C64.8361 20.0707 65.3572 19.9359 65.8245 19.6574C66.3007 19.3698 66.6961 18.9835 67.0106 18.4982L70.3667 19.28C69.8185 20.4751 69.0009 21.4545 67.9136 22.2182C66.8264 22.973 65.6088 23.3504 64.261 23.3504ZM60.9454 14.913H67.5767C67.4778 14.3739 67.2667 13.8887 66.9432 13.4574C66.6287 13.0171 66.2378 12.6667 65.7706 12.4061C65.3033 12.1455 64.8001 12.0152 64.261 12.0152C63.7219 12.0152 63.2232 12.1455 62.7649 12.4061C62.3067 12.6577 61.9158 13.0036 61.5923 13.4439C61.2778 13.8752 61.0622 14.3649 60.9454 14.913Z" fill="#15171A"/>
<path d="M71.3192 23L76.2522 16.2339L71.3596 9.50825H75.4166L78.274 13.4304L81.1448 9.50825H85.2018L80.3092 16.2339L85.2422 23H81.1853L78.274 19.0104L75.3761 23H71.3192Z" fill="#15171A"/>
<path d="M95.0323 12.8104H92.4175V23H89.1288V12.8104H87.134V9.52172H89.1288V5.5H92.4175V9.52172H95.0323V12.8104Z" fill="#15171A"/>
<path d="M97.3343 23V4.13042H104.208C105.206 4.13042 106.104 4.33709 106.904 4.75042C107.713 5.15477 108.351 5.73883 108.818 6.50259C109.294 7.25738 109.532 8.15143 109.532 9.18477C109.532 9.64303 109.465 10.1058 109.33 10.573C109.195 11.0403 108.989 11.4626 108.71 11.84C108.431 12.2084 108.072 12.4824 107.632 12.6622C108.216 12.8059 108.692 13.0665 109.06 13.4439C109.429 13.8213 109.716 14.2661 109.923 14.7782C110.13 15.2814 110.269 15.7981 110.341 16.3282C110.422 16.8494 110.462 17.3346 110.462 17.7839C110.462 18.7813 110.215 19.6709 109.721 20.4526C109.227 21.2343 108.562 21.8543 107.726 22.3126C106.899 22.7709 105.983 23 104.977 23H97.3343ZM100.623 20.183H104.64C105.179 20.183 105.664 20.0527 106.095 19.7922C106.527 19.5316 106.872 19.1722 107.133 18.7139C107.394 18.2556 107.524 17.7345 107.524 17.1504C107.524 16.6472 107.394 16.171 107.133 15.7217C106.872 15.2724 106.527 14.9085 106.095 14.63C105.664 14.3514 105.179 14.2122 104.64 14.2122H100.623V20.183ZM100.623 11.4356H103.831C104.496 11.4356 105.062 11.229 105.529 10.8156C106.005 10.4023 106.243 9.85419 106.243 9.17129C106.243 8.44346 106.005 7.89535 105.529 7.52694C105.062 7.14955 104.496 6.96085 103.831 6.96085H100.623V11.4356Z" fill="#15171A"/>
<path d="M112.494 23V2.78259H115.783V23H112.494Z" fill="#15171A"/>
<path d="M124.608 23.3504C123.368 23.3504 122.236 23.0314 121.211 22.3935C120.196 21.7555 119.383 20.9019 118.772 19.8326C118.17 18.7543 117.869 17.5638 117.869 16.2609C117.869 15.2724 118.044 14.3514 118.394 13.4978C118.745 12.6352 119.225 11.8804 119.837 11.2335C120.457 10.5775 121.175 10.0653 121.993 9.69694C122.811 9.32854 123.682 9.14433 124.608 9.14433C125.848 9.14433 126.975 9.46332 127.991 10.1013C129.015 10.7393 129.828 11.5974 130.43 12.6756C131.041 13.7539 131.347 14.949 131.347 16.2609C131.347 17.2403 131.172 18.1568 130.821 19.0104C130.471 19.864 129.986 20.6188 129.366 21.2748C128.755 21.9217 128.04 22.4294 127.223 22.7978C126.414 23.1662 125.542 23.3504 124.608 23.3504ZM124.608 20.0617C125.264 20.0617 125.852 19.8865 126.373 19.5361C126.895 19.1856 127.303 18.7229 127.6 18.1478C127.905 17.5727 128.058 16.9438 128.058 16.2609C128.058 15.56 127.901 14.922 127.587 14.3469C127.281 13.7629 126.863 13.3001 126.333 12.9587C125.812 12.6082 125.237 12.433 124.608 12.433C123.961 12.433 123.377 12.6082 122.856 12.9587C122.334 13.3091 121.921 13.7764 121.616 14.3604C121.31 14.9445 121.157 15.578 121.157 16.2609C121.157 16.9707 121.315 17.6132 121.629 18.1882C121.944 18.7633 122.361 19.2216 122.883 19.563C123.413 19.8955 123.988 20.0617 124.608 20.0617Z" fill="#15171A"/>
<path d="M143.364 9.52172H146.653V23.2561C146.653 24.2265 146.455 25.1071 146.06 25.8978C145.665 26.6975 145.125 27.3804 144.443 27.9465C143.76 28.5216 142.978 28.9619 142.097 29.2674C141.217 29.5819 140.291 29.7391 139.321 29.7391C138.377 29.7391 137.47 29.5459 136.598 29.1596C135.727 28.7732 134.954 28.243 134.28 27.5691C133.615 26.9042 133.107 26.1449 132.757 25.2913L135.763 23.93C135.942 24.4242 136.212 24.8555 136.571 25.2239C136.94 25.6013 137.362 25.8933 137.838 26.1C138.314 26.3156 138.809 26.4235 139.321 26.4235C139.842 26.4235 140.341 26.3516 140.817 26.2078C141.302 26.064 141.738 25.8529 142.124 25.5743C142.511 25.3048 142.812 24.9723 143.027 24.5769C143.252 24.1906 143.364 23.7503 143.364 23.2561V21.3556C142.942 21.9487 142.412 22.4294 141.774 22.7978C141.136 23.1662 140.399 23.3504 139.563 23.3504C138.593 23.3504 137.685 23.1662 136.841 22.7978C135.996 22.4294 135.25 21.9217 134.603 21.2748C133.965 20.6188 133.462 19.864 133.094 19.0104C132.734 18.1568 132.555 17.2403 132.555 16.2609C132.555 15.2814 132.734 14.3649 133.094 13.5113C133.462 12.6577 133.965 11.9074 134.603 11.2604C135.25 10.6045 135.996 10.0923 136.841 9.7239C137.685 9.35549 138.593 9.17129 139.563 9.17129C140.399 9.17129 141.136 9.35549 141.774 9.7239C142.412 10.0833 142.942 10.5596 143.364 11.1526V9.52172ZM139.604 20.183C140.296 20.183 140.907 20.0078 141.437 19.6574C141.976 19.298 142.398 18.8217 142.704 18.2287C143.009 17.6267 143.162 16.9707 143.162 16.2609C143.162 15.542 143.005 14.8861 142.69 14.293C142.385 13.7 141.963 13.2238 141.423 12.8643C140.893 12.5049 140.287 12.3252 139.604 12.3252C138.93 12.3252 138.314 12.5049 137.757 12.8643C137.2 13.2148 136.755 13.6865 136.423 14.2796C136.091 14.8726 135.924 15.533 135.924 16.2609C135.924 16.9887 136.091 17.6491 136.423 18.2422C136.755 18.8352 137.2 19.3069 137.757 19.6574C138.314 20.0078 138.93 20.183 139.604 20.183Z" fill="#15171A"/>
<path d="M29.0323 14.5161C29.0323 22.5332 22.5332 29.0323 14.5161 29.0323C6.49909 29.0323 0 22.5332 0 14.5161C0 6.49909 6.49909 0 14.5161 0C22.5332 0 29.0323 6.49909 29.0323 14.5161Z" fill="#625DF5"/>
<path d="M14.5149 5.12317C14.9965 10.0975 18.9333 14.0343 23.9076 14.516C18.9333 14.9976 14.9965 18.9344 14.5149 23.9087C14.0332 18.9344 10.0964 14.9976 5.12207 14.516C10.0964 14.0343 14.0332 10.0975 14.5149 5.12317Z" fill="white"/>
</svg>
