<svg width="19" height="20" viewBox="0 0 19 20" fill="none" xmlns="http://www.w3.org/2000/svg">
<path d="M9.5 0.5625C4.28125 0.5625 0.0625 4.78125 0.0625 10C0.0625 15.2188 4.28125 19.4688 9.5 19.4688C14.7188 19.4688 18.9688 15.2188 18.9688 10C18.9688 4.78125 14.7188 0.5625 9.5 0.5625ZM5.6875 17.0625V14.5C5.6875 13.5 6.5 12.6875 7.5 12.6875H11.5625C12.5625 12.6875 13.375 13.5 13.375 14.5V17.0625C12.25 17.6875 10.9375 18.0313 9.53125 18.0313C8.125 18.0625 6.8125 17.6875 5.6875 17.0625ZM14.75 16.0938V14.5C14.75 12.7188 13.3125 11.2812 11.5313 11.2812H7.46875C5.6875 11.2812 4.25 12.7188 4.25 14.5V16.0938C2.53125 14.625 1.4375 12.4375 1.4375 10C1.46875 5.5625 5.0625 1.96875 9.5 1.96875C13.9375 1.96875 17.5625 5.59375 17.5625 10.0312C17.5625 12.4375 16.4688 14.625 14.75 16.0938Z" fill="white"/>
</svg>
