<svg width="22" height="22" viewBox="0 0 22 22" fill="none" xmlns="http://www.w3.org/2000/svg">
<g filter="url(#filter0_d_1106_5487)">
<path d="M3.66699 12.8333C3.66699 11.8208 4.4878 11 5.50033 11H16.5003C17.5129 11 18.3337 11.8208 18.3337 12.8333C18.3337 16.8834 15.0504 20.1667 11.0003 20.1667C6.95024 20.1667 3.66699 16.8834 3.66699 12.8333Z" fill="white"/>
</g>
<g filter="url(#filter1_d_1106_5487)">
<path d="M14.6663 5.5C14.6663 7.52504 13.0247 9.16667 10.9997 9.16667C8.97463 9.16667 7.33301 7.52504 7.33301 5.5C7.33301 3.47495 8.97463 1.83333 10.9997 1.83333C13.0247 1.83333 14.6663 3.47495 14.6663 5.5Z" fill="white"/>
</g>
<defs>
<filter id="filter0_d_1106_5487" x="2.66699" y="10.5" width="16.667" height="11.1667" filterUnits="userSpaceOnUse" color-interpolation-filters="sRGB">
<feFlood flood-opacity="0" result="BackgroundImageFix"/>
<feColorMatrix in="SourceAlpha" type="matrix" values="0 0 0 0 0 0 0 0 0 0 0 0 0 0 0 0 0 0 127 0" result="hardAlpha"/>
<feOffset dy="0.5"/>
<feGaussianBlur stdDeviation="0.5"/>
<feComposite in2="hardAlpha" operator="out"/>
<feColorMatrix type="matrix" values="0 0 0 0 0 0 0 0 0 0 0 0 0 0 0 0 0 0 0.12 0"/>
<feBlend mode="normal" in2="BackgroundImageFix" result="effect1_dropShadow_1106_5487"/>
<feBlend mode="normal" in="SourceGraphic" in2="effect1_dropShadow_1106_5487" result="shape"/>
</filter>
<filter id="filter1_d_1106_5487" x="6.33301" y="1.33333" width="9.33301" height="9.33333" filterUnits="userSpaceOnUse" color-interpolation-filters="sRGB">
<feFlood flood-opacity="0" result="BackgroundImageFix"/>
<feColorMatrix in="SourceAlpha" type="matrix" values="0 0 0 0 0 0 0 0 0 0 0 0 0 0 0 0 0 0 127 0" result="hardAlpha"/>
<feOffset dy="0.5"/>
<feGaussianBlur stdDeviation="0.5"/>
<feComposite in2="hardAlpha" operator="out"/>
<feColorMatrix type="matrix" values="0 0 0 0 0 0 0 0 0 0 0 0 0 0 0 0 0 0 0.12 0"/>
<feBlend mode="normal" in2="BackgroundImageFix" result="effect1_dropShadow_1106_5487"/>
<feBlend mode="normal" in="SourceGraphic" in2="effect1_dropShadow_1106_5487" result="shape"/>
</filter>
</defs>
</svg>
