<svg width="119" height="119" viewBox="0 0 119 119" fill="none" xmlns="http://www.w3.org/2000/svg">
<circle opacity="0.08" cx="59.5" cy="59.5" r="59.5" fill="url(#paint0_linear_1102_2918)"/>
<circle opacity="0.15" cx="59.5014" cy="59.5015" r="49.98" fill="url(#paint1_linear_1102_2918)"/>
<path d="M33.7773 58.009C33.4818 56.6794 34.9711 55.678 36.0909 56.4533L47.1821 64.1318C47.8776 64.6133 48.8336 64.4234 49.2922 63.7125L59.056 48.5788C59.6622 47.6391 61.0472 47.6716 61.6087 48.6386L70.2867 63.5841C70.7309 64.3491 71.7381 64.5642 72.4561 64.0472L83.2074 56.3061C84.2733 55.5389 85.7401 56.4174 85.5662 57.7189L82.7066 79.1653C82.5582 80.281 81.6065 81.1142 80.481 81.1142H40.7131C39.6607 81.1142 38.7493 80.3832 38.521 79.3557L33.7773 58.009Z" fill="#C3CEF6"/>
<path d="M40.4666 52.2349C40.3476 51.5342 41.1805 51.0777 41.7071 51.5549L51.5285 60.454C51.7783 60.6805 52.1488 60.7119 52.4331 60.5308L59.9895 55.7195C60.2294 55.5667 60.5352 55.5631 60.7786 55.7102L68.7799 60.5434C69.0675 60.7172 69.4357 60.678 69.6803 60.4475L79.1963 51.4801C79.7007 51.0047 80.5244 51.4111 80.4545 52.1007L77.9922 76.2668C77.9535 76.6488 77.6316 76.9394 77.2476 76.9394H45.2933C44.9282 76.9394 44.6163 76.6761 44.5552 76.3162L40.4666 52.2349Z" fill="#C3CEF6"/>
<path d="M33.3628 54.3541C33.215 53.6894 33.9597 53.1887 34.5196 53.5763L47.1822 62.3427C47.8777 62.8242 48.8337 62.6343 49.2923 61.9234L59.0561 46.7897C59.6623 45.85 61.0473 45.8825 61.6088 46.8495L70.2868 61.7949C70.731 62.56 71.7382 62.7751 72.4562 62.2582L84.6167 53.5027C85.1491 53.1191 85.8825 53.5584 85.7958 54.2091L82.7067 77.3763C82.5583 78.492 81.6066 79.3251 80.4811 79.3251H40.7133C39.6608 79.3251 38.7494 78.5941 38.5211 77.5666L33.3628 54.3541Z" fill="#625DF5"/>
<path d="M81.3731 82.4508H40.063C39.4996 82.4508 39.043 82.9075 39.043 83.4708C39.043 84.0341 39.4996 84.4908 40.063 84.4908H81.3731C81.9364 84.4908 82.3931 84.0341 82.3931 83.4708C82.3931 82.9075 81.9364 82.4508 81.3731 82.4508Z" fill="#C3CEF6"/>
<path d="M78.0582 42.6708L78.5645 45.4795L81.3732 45.9858L78.5645 46.4921L78.0582 49.3008L77.5519 46.4921L74.7432 45.9858L77.5519 45.4795L78.0582 42.6708Z" fill="#8099EC"/>
<path d="M47.9681 46.2408L48.3965 48.6174L50.7731 49.0459L48.3965 49.4743L47.9681 51.8509L47.5397 49.4743L45.1631 49.0459L47.5397 48.6174L47.9681 46.2408Z" fill="#8099EC"/>
<path d="M62.7584 37.0607L63.2647 39.8694L66.0734 40.3757L63.2647 40.882L62.7584 43.6907L62.252 40.882L59.4434 40.3757L62.252 39.8694L62.7584 37.0607Z" fill="#8099EC"/>
<path d="M43.378 34.5108L44.0401 38.1837L47.713 38.8458L44.0401 39.5079L43.378 43.1808L42.7159 39.5079L39.043 38.8458L42.7159 38.1837L43.378 34.5108Z" fill="#8099EC"/>
<defs>
<linearGradient id="paint0_linear_1102_2918" x1="59.5" y1="0" x2="59.5" y2="119" gradientUnits="userSpaceOnUse">
<stop stop-color="#5750F1" stop-opacity="0"/>
<stop offset="1" stop-color="#5750F1"/>
</linearGradient>
<linearGradient id="paint1_linear_1102_2918" x1="59.5014" y1="9.52155" x2="59.5014" y2="109.481" gradientUnits="userSpaceOnUse">
<stop stop-color="#5750F1"/>
<stop offset="1" stop-color="#5750F1" stop-opacity="0"/>
</linearGradient>
</defs>
</svg>
