<svg width="17" height="17" viewBox="0 0 17 17" fill="none" xmlns="http://www.w3.org/2000/svg">
<g filter="url(#filter0_d_1032_2581)">
<path fill-rule="evenodd" clip-rule="evenodd" d="M15.8786 7.34474L15.7067 9.17117C15.4235 12.1806 15.2819 13.6854 14.3949 14.5927C13.508 15.5 12.1786 15.5 9.51994 15.5H7.48006C4.82137 15.5 3.49203 15.5 2.60507 14.5927C1.71811 13.6854 1.57649 12.1806 1.29325 9.17116L1.12136 7.34474C0.98635 5.91027 0.918847 5.19304 1.16424 4.89656C1.29698 4.73617 1.47749 4.6379 1.67049 4.62095C2.02726 4.58961 2.47531 5.09968 3.3714 6.1198C3.83483 6.64737 4.06654 6.91115 4.32503 6.952C4.46826 6.97464 4.61419 6.95137 4.74644 6.88481C4.98513 6.76469 5.14427 6.43859 5.46255 5.78639L7.1402 2.34864C7.74164 1.11621 8.04235 0.5 8.5 0.5C8.95765 0.5 9.25836 1.11621 9.8598 2.34864L11.5374 5.78638C11.8557 6.43859 12.0149 6.76469 12.2536 6.88481C12.3858 6.95137 12.5317 6.97464 12.675 6.952C12.9335 6.91115 13.1652 6.64737 13.6286 6.1198C14.5247 5.09968 14.9727 4.58961 15.3295 4.62095C15.5225 4.6379 15.703 4.73617 15.8358 4.89656C16.0812 5.19304 16.0136 5.91027 15.8786 7.34474ZM5.6875 12.5C5.6875 12.1893 5.93934 11.9375 6.25 11.9375H10.75C11.0607 11.9375 11.3125 12.1893 11.3125 12.5C11.3125 12.8107 11.0607 13.0625 10.75 13.0625H6.25C5.93934 13.0625 5.6875 12.8107 5.6875 12.5Z" fill="white"/>
</g>
<defs>
<filter id="filter0_d_1032_2581" x="0" y="0" width="17" height="17" filterUnits="userSpaceOnUse" color-interpolation-filters="sRGB">
<feFlood flood-opacity="0" result="BackgroundImageFix"/>
<feColorMatrix in="SourceAlpha" type="matrix" values="0 0 0 0 0 0 0 0 0 0 0 0 0 0 0 0 0 0 127 0" result="hardAlpha"/>
<feOffset dy="0.5"/>
<feGaussianBlur stdDeviation="0.5"/>
<feComposite in2="hardAlpha" operator="out"/>
<feColorMatrix type="matrix" values="0 0 0 0 0 0 0 0 0 0 0 0 0 0 0 0 0 0 0.12 0"/>
<feBlend mode="normal" in2="BackgroundImageFix" result="effect1_dropShadow_1032_2581"/>
<feBlend mode="normal" in="SourceGraphic" in2="effect1_dropShadow_1032_2581" result="shape"/>
</filter>
</defs>
</svg>
