<svg width="20" height="20" viewBox="0 0 20 20" fill="none" xmlns="http://www.w3.org/2000/svg">
<path d="M4.72428 8.26196L7.27606 4.80943C8.92553 2.57772 9.75026 1.46186 10.5197 1.69767C11.2892 1.93347 11.2892 3.30207 11.2892 6.03926V6.29734C11.2892 7.28458 11.2892 7.77821 11.6046 8.08784L11.6213 8.10387C11.9436 8.40696 12.4574 8.40696 13.4849 8.40696C15.3339 8.40696 16.2585 8.40696 16.5709 8.96775C16.5761 8.97703 16.5811 8.98639 16.586 8.99582C16.881 9.56529 16.3457 10.2895 15.275 11.7381L12.7233 15.1905C11.0738 17.4223 10.249 18.5381 9.47954 18.3023C8.71007 18.0665 8.71009 16.6979 8.71013 13.9607L8.71014 13.7027C8.71015 12.7154 8.71016 12.2218 8.39471 11.9122L8.37802 11.8961C8.05576 11.5931 7.542 11.593 6.51447 11.593C4.66541 11.593 3.74088 11.593 3.42842 11.0323C3.42325 11.023 3.41822 11.0136 3.41334 11.0042C3.11838 10.4347 3.65368 9.71047 4.72428 8.26196Z" fill="white"/>
</svg>
