<svg width="53" height="51" viewBox="0 0 53 51" fill="none" xmlns="http://www.w3.org/2000/svg">
<path d="M0.777274 24.009C0.481779 22.6794 1.97109 21.678 3.0909 22.4533L14.1821 30.1318C14.8776 30.6133 15.8336 30.4234 16.2922 29.7125L26.056 14.5788C26.6622 13.6391 28.0472 13.6716 28.6087 14.6386L37.2867 29.5841C37.7309 30.3491 38.7381 30.5642 39.4561 30.0472L50.2074 22.3061C51.2733 21.5389 52.7401 22.4174 52.5662 23.7189L49.7066 45.1653C49.5582 46.281 48.6065 47.1142 47.481 47.1142H7.71314C6.66065 47.1142 5.74933 46.3832 5.521 45.3557L0.777274 24.009Z" fill="#C3CEF6"/>
<path d="M7.46656 18.2349C7.34758 17.5342 8.18046 17.0777 8.70714 17.5549L18.5285 26.454C18.7783 26.6805 19.1488 26.7119 19.4331 26.5308L26.9895 21.7195C27.2294 21.5667 27.5352 21.5631 27.7786 21.7102L35.7799 26.5434C36.0675 26.7172 36.4357 26.678 36.6803 26.4475L46.1963 17.4801C46.7007 17.0047 47.5244 17.4111 47.4545 18.1007L44.9922 42.2668C44.9535 42.6488 44.6316 42.9394 44.2476 42.9394H12.2933C11.9282 42.9394 11.6163 42.6761 11.5552 42.3162L7.46656 18.2349Z" fill="#C3CEF6"/>
<path d="M0.362758 20.3541C0.215011 19.6894 0.959663 19.1887 1.51959 19.5763L14.1822 28.3427C14.8777 28.8242 15.8337 28.6343 16.2923 27.9234L26.0561 12.7897C26.6623 11.85 28.0473 11.8825 28.6088 12.8495L37.2868 27.7949C37.731 28.56 38.7382 28.7751 39.4562 28.2582L51.6167 19.5027C52.1491 19.1191 52.8825 19.5584 52.7958 20.2091L49.7067 43.3763C49.5583 44.492 48.6066 45.3251 47.4811 45.3251H7.71325C6.66077 45.3251 5.74944 44.5941 5.52112 43.5666L0.362758 20.3541Z" fill="#625DF5"/>
<path d="M48.3731 48.4508H7.06297C6.49964 48.4508 6.04297 48.9075 6.04297 49.4708C6.04297 50.0341 6.49964 50.4908 7.06297 50.4908H48.3731C48.9364 50.4908 49.3931 50.0341 49.3931 49.4708C49.3931 48.9075 48.9364 48.4508 48.3731 48.4508Z" fill="#C3CEF6"/>
<path d="M45.0582 8.67078L45.5645 11.4795L48.3732 11.9858L45.5645 12.4921L45.0582 15.3008L44.5519 12.4921L41.7432 11.9858L44.5519 11.4795L45.0582 8.67078Z" fill="#8099EC"/>
<path d="M14.9681 12.2408L15.3965 14.6174L17.7731 15.0459L15.3965 15.4743L14.9681 17.8509L14.5397 15.4743L12.1631 15.0459L14.5397 14.6174L14.9681 12.2408Z" fill="#8099EC"/>
<path d="M29.7584 3.06073L30.2647 5.86941L33.0734 6.37573L30.2647 6.88205L29.7584 9.69073L29.252 6.88205L26.4434 6.37573L29.252 5.86941L29.7584 3.06073Z" fill="#8099EC"/>
<path d="M10.378 0.510803L11.0401 4.1837L14.713 4.84581L11.0401 5.50792L10.378 9.18081L9.71587 5.50792L6.04297 4.84581L9.71587 4.1837L10.378 0.510803Z" fill="#8099EC"/>
</svg>
